# xmcd CD database file
# Copyright (C) 1995 Ti Kan
#
# Track frame offsets:
#	150
#	11882
#	27052
#	44145
#	62860
#	76222
#	91370
#	106855
#	120767
#	134447
#
# Disc length: 1991 seconds
#
# Revision: 2
# Processed by: cddbd v1.4b41PL1 Copyright (c) Steve Scherf et al.
# Submitted via: NotifyCDPlayer(CDDB) 1.05
#
DISCID=7b07c50a
DTITLE=Neal McCoy - You Gotta Love That!
DYEAR=1900
DGENRE=
TTITLE0=You Gotta Love That
TTITLE1=For A Change
TTITLE2=Y-O-U
TTITLE3=Please Don't Leave Me Now
TTITLE4=Twang
TTITLE5=They're Playing Our Song
TTITLE6=Spending Every Minute In Love
TTITLE7=Plain Jane
TTITLE8=You're Backin' Up
TTITLE9=If I Was I Drinking Man
EXTD=
EXTT0=
EXTT1=
EXTT2=
EXTT3=
EXTT4=
EXTT5=
EXTT6=
EXTT7=
EXTT8=
EXTT9=
PLAYORDER=
